<svg width="16" height="15" viewBox="0 0 16 15" fill="none" xmlns="http://www.w3.org/2000/svg">
<path d="M6.90445 1.52758C7.21715 0.422916 8.7829 0.422919 9.09559 1.52758L10.0752 4.98837C10.1829 5.3688 10.4802 5.66613 10.8607 5.77382L14.3215 6.75345C15.4261 7.06614 15.4261 8.6319 14.3215 8.94459L10.8607 9.92422C10.4802 10.0319 10.1829 10.3292 10.0752 10.7097L9.09559 14.1705C8.7829 15.2751 7.21714 15.2751 6.90445 14.1705L5.92482 10.7097C5.81713 10.3292 5.5198 10.0319 5.13937 9.92422L1.67858 8.94459C0.573917 8.63189 0.57392 7.06614 1.67858 6.75345L5.13937 5.77382C5.5198 5.66613 5.81713 5.3688 5.92482 4.98837L6.90445 1.52758Z" fill="#FF4B0A"/>
</svg>
