<svg width="50" height="50" viewBox="0 0 50 50" fill="none" xmlns="http://www.w3.org/2000/svg">
<g filter="url(#filter0_d_142_6074)">
<rect x="7" y="7" width="36" height="36" rx="8" fill="#AA205E" fill-opacity="0.25" shape-rendering="crispEdges"/>
<path d="M16.17 20.4399L25 25.5499L33.77 20.4699" stroke="#AA205E" stroke-width="1.5" stroke-linecap="round" stroke-linejoin="round"/>
<path d="M25 34.61V25.54" stroke="#AA205E" stroke-width="1.5" stroke-linecap="round" stroke-linejoin="round"/>
<g filter="url(#filter1_d_142_6074)">
<path d="M22.93 15.48L17.59 18.45C16.38 19.12 15.39 20.8 15.39 22.18V27.83C15.39 29.21 16.38 30.89 17.59 31.56L22.93 34.53C24.07 35.16 25.94 35.16 27.08 34.53L32.42 31.56C33.63 30.89 34.62 29.21 34.62 27.83V22.18C34.62 20.8 33.63 19.12 32.42 18.45L27.08 15.48C25.93 14.84 24.07 14.84 22.93 15.48Z" stroke="#AA205E" stroke-width="1.5" stroke-linecap="round" stroke-linejoin="round" shape-rendering="crispEdges"/>
</g>
<path d="M30 26.2401V22.5801L20.51 17.1001" stroke="#AA205E" stroke-width="1.5" stroke-linecap="round" stroke-linejoin="round"/>
</g>
<defs>
<filter id="filter0_d_142_6074" x="0.2" y="0.2" width="49.6" height="49.6" filterUnits="userSpaceOnUse" color-interpolation-filters="sRGB">
<feFlood flood-opacity="0" result="BackgroundImageFix"/>
<feColorMatrix in="SourceAlpha" type="matrix" values="0 0 0 0 0 0 0 0 0 0 0 0 0 0 0 0 0 0 127 0" result="hardAlpha"/>
<feOffset/>
<feGaussianBlur stdDeviation="3.4"/>
<feComposite in2="hardAlpha" operator="out"/>
<feColorMatrix type="matrix" values="0 0 0 0 0.666667 0 0 0 0 0.12549 0 0 0 0 0.368627 0 0 0 0.2 0"/>
<feBlend mode="normal" in2="BackgroundImageFix" result="effect1_dropShadow_142_6074"/>
<feBlend mode="normal" in="SourceGraphic" in2="effect1_dropShadow_142_6074" result="shape"/>
</filter>
<filter id="filter1_d_142_6074" x="10.64" y="10.25" width="28.73" height="29.5024" filterUnits="userSpaceOnUse" color-interpolation-filters="sRGB">
<feFlood flood-opacity="0" result="BackgroundImageFix"/>
<feColorMatrix in="SourceAlpha" type="matrix" values="0 0 0 0 0 0 0 0 0 0 0 0 0 0 0 0 0 0 127 0" result="hardAlpha"/>
<feOffset/>
<feGaussianBlur stdDeviation="2"/>
<feComposite in2="hardAlpha" operator="out"/>
<feColorMatrix type="matrix" values="0 0 0 0 0.666667 0 0 0 0 0.12549 0 0 0 0 0.368627 0 0 0 1 0"/>
<feBlend mode="normal" in2="BackgroundImageFix" result="effect1_dropShadow_142_6074"/>
<feBlend mode="normal" in="SourceGraphic" in2="effect1_dropShadow_142_6074" result="shape"/>
</filter>
</defs>
</svg>
